<svg width="25" height="24" viewBox="0 0 25 24" fill="none" xmlns="http://www.w3.org/2000/svg">
<path d="M5.89999 2.1H19.1C20.2 2.1 21.1 3 21.1 4.1V6.3C21.1 7.1 20.6 8.1 20.1 8.6L15.8 12.4C15.2 12.9 14.8 13.9 14.8 14.7V19C14.8 19.6 14.4 20.4 13.9 20.7L12.5 21.6C11.2 22.4 9.39999 21.5 9.39999 19.9V14.6C9.39999 13.9 8.99999 13 8.59999 12.5L4.79999 8.5C4.29999 8 3.89999 7.1 3.89999 6.5V4.2C3.89999 3 4.79999 2.1 5.89999 2.1Z" stroke="#EFEFEF" stroke-width="1.5" stroke-miterlimit="10" stroke-linecap="round" stroke-linejoin="round"/>
<path d="M11.43 2.1L6.5 10" stroke="#EFEFEF" stroke-width="1.5" stroke-miterlimit="10" stroke-linecap="round" stroke-linejoin="round"/>
</svg>
